# xmcd
#
# Track frame offsets: 
#        150
#        37468
#        83926
#        109856
#        127157
#        142342
#        171980
#        199716
#        259941
#
# Disc length: 3817 seconds
#
# Revision: 0
# Processed by: cddbd v1.5.2PL0 Copyright (c) Steve Scherf et al.
# Submitted via: ExactAudioCopy v0.95b4
#
DISCID=930ee709
DTITLE=Eric Clapton - Double Trouble [CD2]
DYEAR=1995
DGENRE=Blues
TTITLE0=Everyday I have the blues
TTITLE1=Double Trouble
TTITLE2=Before you accuse me
TTITLE3=Someday after a while
TTITLE4=I'm tore down
TTITLE5=Have you ever loved a woman
TTITLE6=Crossroad blues
TTITLE7=Five long years
TTITLE8=Ain't nobody's business
EXTD=
EXTT0=
EXTT1=
EXTT2=
EXTT3=
EXTT4=
EXTT5=
EXTT6=
EXTT7=
EXTT8=
PLAYORDER=
